<?xml version="1.0" encoding="UTF-8"?>
<svg id="Layer_1" data-name="Layer 1" xmlns="http://www.w3.org/2000/svg" viewBox="0 0 512 512">
  <defs>
    <style>
      .cls-1 {
        fill: #232323;
      }

      .cls-1, .cls-2 {
        fill-rule: evenodd;
      }

      .cls-2 {
        fill: #a6165c;
      }
    </style>
  </defs>
  <path class="cls-1" d="m65.83,65.54v251.8c3.77.09,6.35,2.91,6.35,6.93s-2.44,6.75-6.35,6.91v70.43c13.9,0,25.17,11.27,25.17,25.17h131.12c0-13.91,11.27-25.17,25.17-25.17v-70.58c-3.25-.53-5.45-3.17-5.45-6.75s2.25-6.19,5.45-6.74V65.54c-13.9,0-25.17-11.28-25.17-25.17H91.01c0,13.9-11.27,25.17-25.17,25.17Zm166.3,258.73c0,3.98-2.54,6.96-6.62,6.96-3.86,0-6.52-2.98-6.52-6.96s2.76-6.96,6.63-6.96,6.51,2.88,6.51,6.96Zm-22.85,0c0,3.98-2.54,6.96-6.63,6.96-3.86,0-6.52-2.98-6.52-6.96s2.76-6.96,6.63-6.96,6.52,2.88,6.52,6.96Zm-22.85,0c0,3.98-2.54,6.96-6.63,6.96-3.87,0-6.51-2.98-6.51-6.96s2.76-6.96,6.62-6.96,6.51,2.88,6.51,6.96Zm-22.85,0c0,3.98-2.54,6.96-6.63,6.96-3.86,0-6.52-2.98-6.52-6.96s2.76-6.96,6.63-6.96,6.52,2.88,6.52,6.96Zm-22.85,0c0,3.98-2.54,6.96-6.63,6.96-3.86,0-6.51-2.98-6.51-6.96s2.76-6.96,6.62-6.96,6.51,2.88,6.51,6.96Zm-22.85,0c0,3.98-2.53,6.96-6.62,6.96-3.87,0-6.52-2.98-6.52-6.96s2.76-6.96,6.63-6.96,6.51,2.88,6.51,6.96Zm-22.84,0c0,3.98-2.54,6.96-6.63,6.96-3.86,0-6.51-2.98-6.51-6.96s2.76-6.96,6.62-6.96,6.52,2.88,6.52,6.96Zm103.6-241.62v78.47h-6.03v-78.47h6.03Zm-11.89,0v78.47h-6.22v-78.47h6.22Zm-12.07,0v78.47h-18.11v-78.47h18.11Zm-24.34,0v78.47h-5.85v-78.47h5.85Zm-11.88,0v78.47h-12.07v-78.47h12.07Zm-18.3,0v78.47h-5.85v-78.47h5.85Z"/>
  <path class="cls-2" d="m434.45,123.67l-118.06-57.02c-6.05,12.51-21.1,17.76-33.61,11.72l-17.7,36.66v304.38h-17.78c-4.07,0-7.39,3.32-7.39,7.39v17.78h-29.53l56.03,27.06c6.05-12.52,21.1-17.77,33.62-11.72l30.69-63.56c-2.69-1.89-3.53-5.23-1.97-8.45,1.58-3.27,4.71-4.59,7.83-3.69l109.6-226.91c-12.51-6.05-17.75-21.11-11.71-33.62Zm-155.61,240.13c-1.73,3.58-5.31,5.15-8.99,3.38-3.49-1.68-4.57-5.51-2.83-9.1,1.77-3.68,5.5-5.07,8.99-3.38,3.48,1.69,4.62,5.42,2.84,9.1Zm72.58-233.27l-34.12,70.66-5.27-2.54,34.12-70.66,5.27,2.54Zm-32.45-15.67l5.27,2.54-34.13,70.66-5.27-2.54,34.13-70.67Zm-19.57,258.88c-1.72,3.58-5.31,5.15-8.99,3.39-3.49-1.69-4.57-5.52-2.84-9.1,1.78-3.68,5.51-5.07,8.99-3.39,3.49,1.67,4.62,5.43,2.83,9.1Zm-3.69-182.96l34.12-70.66,10.87,5.25-34.13,70.67-10.87-5.25Zm24.27,192.9c-1.73,3.58-5.31,5.16-8.99,3.38-3.49-1.68-4.57-5.52-2.84-9.1,1.78-3.68,5.52-5.07,9-3.39,3.47,1.68,4.61,5.42,2.84,9.1Zm2.91-179.77l34.13-70.66,16.3,7.87-34.12,70.67-16.31-7.88Zm21.58,10.42l34.13-70.67,5.6,2.7-34.12,70.66-5.6-2.7Zm16.31,7.88l-5.44-2.63,34.13-70.67,5.43,2.63-34.12,70.67Z"/>
</svg>