<?xml version="1.0" encoding="UTF-8"?>
<svg id="Layer_1" data-name="Layer 1" xmlns="http://www.w3.org/2000/svg" viewBox="0 0 512 512">
  <defs>
    <style>
      .cls-1 {
        fill: #fff;
      }

      .cls-1, .cls-2 {
        fill-rule: evenodd;
      }

      .cls-3 {
        fill: #232323;
      }

      .cls-2 {
        fill: #a6165c;
      }
    </style>
  </defs>
  <rect class="cls-3" x="10.25" y="10.25" width="491.5" height="491.5" rx="35.06" ry="35.06"/>
  <g>
    <path class="cls-1" d="m65.51,65.22v252.23c3.78.09,6.36,2.91,6.36,6.94s-2.45,6.76-6.36,6.92v70.55c13.93,0,25.21,11.29,25.21,25.22h131.34c0-13.93,11.29-25.22,25.21-25.22v-70.7c-3.25-.53-5.46-3.18-5.46-6.76s2.25-6.2,5.46-6.75V65.22c-13.93,0-25.21-11.29-25.21-25.21H90.73c0,13.92-11.29,25.21-25.22,25.21Zm166.58,259.17c0,3.98-2.54,6.97-6.63,6.97-3.87,0-6.53-2.99-6.53-6.97s2.77-6.97,6.64-6.97,6.52,2.88,6.52,6.97Zm-22.89,0c0,3.98-2.54,6.97-6.64,6.97-3.87,0-6.53-2.99-6.53-6.97s2.77-6.97,6.64-6.97,6.53,2.88,6.53,6.97Zm-22.89,0c0,3.98-2.54,6.97-6.64,6.97-3.88,0-6.52-2.99-6.52-6.97s2.76-6.97,6.63-6.97,6.52,2.88,6.52,6.97Zm-22.89,0c0,3.98-2.54,6.97-6.64,6.97-3.87,0-6.53-2.99-6.53-6.97s2.76-6.97,6.64-6.97,6.53,2.88,6.53,6.97Zm-22.89,0c0,3.98-2.54,6.97-6.64,6.97-3.87,0-6.52-2.99-6.52-6.97s2.77-6.97,6.63-6.97,6.52,2.88,6.52,6.97Zm-22.89,0c0,3.98-2.54,6.97-6.63,6.97-3.88,0-6.53-2.99-6.53-6.97s2.77-6.97,6.64-6.97,6.52,2.88,6.52,6.97Zm-22.88,0c0,3.98-2.54,6.97-6.64,6.97-3.87,0-6.52-2.99-6.52-6.97s2.76-6.97,6.63-6.97,6.53,2.88,6.53,6.97Zm103.77-242.03v78.61h-6.04v-78.61h6.04Zm-11.91,0v78.61h-6.23v-78.61h6.23Zm-12.09,0v78.61h-18.14v-78.61h18.14Zm-24.38,0v78.61h-5.86v-78.61h5.86Zm-11.9,0v78.61h-12.09v-78.61h12.09Zm-18.33,0v78.61h-5.86v-78.61h5.86Z"/>
    <path class="cls-2" d="m434.76,123.45l-118.26-57.12c-6.06,12.53-21.13,17.79-33.67,11.74l-17.73,36.72v304.89h-17.81c-4.08,0-7.41,3.32-7.41,7.41v17.81h-29.58l56.12,27.1c6.06-12.54,21.14-17.8,33.68-11.74l30.75-63.67c-2.7-1.89-3.53-5.24-1.97-8.46,1.58-3.28,4.72-4.6,7.85-3.7l109.78-227.3c-12.53-6.06-17.78-21.15-11.73-33.68Zm-155.87,240.53c-1.73,3.58-5.32,5.16-9.01,3.38-3.49-1.68-4.58-5.52-2.84-9.11,1.77-3.68,5.51-5.08,9-3.39,3.48,1.69,4.62,5.43,2.84,9.12Zm72.7-233.66l-34.18,70.78-5.28-2.55,34.18-70.78,5.28,2.55Zm-32.5-15.7l5.28,2.55-34.19,70.78-5.28-2.54,34.19-70.79Zm-19.6,259.32c-1.72,3.59-5.32,5.16-9,3.39-3.49-1.69-4.58-5.53-2.84-9.12,1.78-3.69,5.52-5.08,9.01-3.39,3.49,1.68,4.63,5.44,2.84,9.12Zm-3.69-183.27l34.18-70.78,10.89,5.25-34.19,70.79-10.89-5.26Zm24.31,193.23c-1.73,3.58-5.32,5.17-9.01,3.39-3.49-1.69-4.58-5.53-2.85-9.11,1.78-3.69,5.53-5.08,9.01-3.39,3.48,1.69,4.62,5.43,2.84,9.12Zm2.91-180.08l34.19-70.78,16.33,7.89-34.18,70.79-16.34-7.89Zm21.61,10.44l34.19-70.79,5.61,2.71-34.18,70.78-5.61-2.7Zm16.34,7.89l-5.45-2.63,34.19-70.79,5.44,2.63-34.18,70.79Z"/>
  </g>
</svg>