<?xml version="1.0" encoding="UTF-8"?>
<svg id="Layer_1" data-name="Layer 1" xmlns="http://www.w3.org/2000/svg" viewBox="0 0 376.55 61.8">
  <defs>
    <style>
      .cls-1, .cls-2 {
        fill: #fff;
      }

      .cls-2, .cls-3 {
        fill-rule: evenodd;
      }

      .cls-3 {
        fill: #a6165c;
      }
    </style>
  </defs>
  <g>
    <path class="cls-2" d="m80.26,6.56v30.71c.46.01.77.35.77.84s-.3.82-.77.84v8.59c1.7,0,3.07,1.37,3.07,3.07h15.99c0-1.7,1.37-3.07,3.07-3.07v-8.61c-.4-.06-.66-.39-.66-.82s.27-.75.66-.82V6.56c-1.7,0-3.07-1.38-3.07-3.07h-15.99c0,1.69-1.37,3.07-3.07,3.07Zm20.28,31.55c0,.48-.31.85-.81.85-.47,0-.8-.36-.8-.85s.34-.85.81-.85.79.35.79.85Zm-2.79,0c0,.48-.31.85-.81.85-.47,0-.79-.36-.79-.85s.34-.85.81-.85.79.35.79.85Zm-2.79,0c0,.48-.31.85-.81.85-.47,0-.79-.36-.79-.85s.34-.85.81-.85.79.35.79.85Zm-2.79,0c0,.48-.31.85-.81.85-.47,0-.79-.36-.79-.85s.34-.85.81-.85.79.35.79.85Zm-2.79,0c0,.48-.31.85-.81.85-.47,0-.79-.36-.79-.85s.34-.85.81-.85.79.35.79.85Zm-2.79,0c0,.48-.31.85-.81.85-.47,0-.79-.36-.79-.85s.34-.85.81-.85.79.35.79.85Zm-2.79,0c0,.48-.31.85-.81.85-.47,0-.79-.36-.79-.85s.34-.85.81-.85.79.35.79.85Zm12.63-29.47v9.57h-.74v-9.57h.74Zm-1.45,0v9.57h-.76v-9.57h.76Zm-1.47,0v9.57h-2.21v-9.57h2.21Zm-2.97,0v9.57h-.71v-9.57h.71Zm-1.45,0v9.57h-1.47v-9.57h1.47Zm-2.23,0v9.57h-.71v-9.57h.71Z"/>
    <path class="cls-3" d="m125.21,13.65l-14.4-6.95c-.74,1.53-2.57,2.17-4.1,1.43l-2.16,4.47v37.12h-2.17c-.5,0-.9.4-.9.9v2.17h-3.6l6.83,3.3c.74-1.53,2.57-2.17,4.1-1.43l3.74-7.75c-.33-.23-.43-.64-.24-1.03.19-.4.57-.56.96-.45l13.37-27.67c-1.53-.74-2.16-2.57-1.43-4.1Zm-18.98,29.28c-.21.44-.65.63-1.1.41-.43-.2-.56-.67-.35-1.11.22-.45.67-.62,1.1-.41.42.21.56.66.35,1.11Zm8.85-28.45l-4.16,8.62-.64-.31,4.16-8.62.64.31Zm-3.96-1.91l.64.31-4.16,8.62-.64-.31,4.16-8.62Zm-2.39,31.57c-.21.44-.65.63-1.1.41-.43-.21-.56-.67-.35-1.11.22-.45.67-.62,1.1-.41.43.2.56.66.35,1.11Zm-.45-22.31l4.16-8.62,1.33.64-4.16,8.62-1.33-.64Zm2.96,23.52c-.21.44-.65.63-1.1.41-.43-.21-.56-.67-.35-1.11.22-.45.67-.62,1.1-.41.42.21.56.66.35,1.11Zm.35-21.92l4.16-8.62,1.99.96-4.16,8.62-1.99-.96Zm2.63,1.27l4.16-8.62.68.33-4.16,8.62-.68-.33Zm1.99.96l-.66-.32,4.16-8.62.66.32-4.16,8.62Z"/>
  </g>
  <g>
    <path class="cls-1" d="m14.28,34.95h-1.78l-1.72,12.5H.72L6.22,8.12h15.72c8.11,0,13.89,4.33,12.78,13.56-1,7.28-4.11,9.72-9.5,12.28l9.44,13.5h-12.39l-8-12.5Zm5.28-8.56c3.06,0,4.83-2.28,5.11-4.56.28-2.39-.89-4.44-3.83-4.44h-5.83l-1.28,9h5.83Z"/>
    <path class="cls-1" d="m54.01,23.34h15.95l-1.22,8.83h-15.95l-.83,5.89h17.33l-1.28,9.39h-27.39l5.5-39.33h27.39l-1.33,9.39h-17.33l-.83,5.83Z"/>
  </g>
  <g>
    <path class="cls-1" d="m142.79,23.57h15.95l-1.22,8.83h-15.94l-.83,5.89h17.33l-1.28,9.39h-27.39l5.5-39.33h27.39l-1.33,9.39h-17.33l-.83,5.83Z"/>
    <path class="cls-1" d="m171.75,8.35h9.44l7.17,16.78,2.22,7.89.22-.06-.11-6.78,2.5-17.83h9.89l-5.5,39.33h-10.06l-6.72-15.5-2.33-7.89-.22.06.11,7.61-2.17,15.72h-9.94l5.5-39.33Z"/>
    <path class="cls-1" d="m228.2,8.35c7.89,0,14.72,4,13.44,13.17l-1.89,13.22c-1.28,9.06-9.17,12.95-17.06,12.95h-14.72l5.5-39.33h14.72Zm-3.89,30c2.72,0,5.17-1.5,5.45-3.61l1.89-13.22c.28-2.17-1.67-3.89-4.39-3.89h-5.06l-2.95,20.72h5.06Z"/>
    <path class="cls-1" d="m257.37,47.68h-9.94l5.5-39.33h9.94l-5.5,39.33Z"/>
    <path class="cls-1" d="m273.59,35.24c1.72,2.5,5,3.78,7.94,3.78,2.67,0,5-.94,5.39-3,.44-2.44-3-3.5-6.17-3.94-6.17-1-11.72-5.95-10.33-13.39,1.5-8.06,8.61-10.89,15.83-10.89,4.78,0,9.22,1.33,12.61,6.28l-7.22,5c-1.67-1.89-4.28-2.78-6.56-2.83-2.5-.06-4.61.89-4.83,2.89-.28,2.28,1.72,3.28,4.72,3.94,6.83,1.28,13.5,3.89,11.67,13.67-1.44,7.67-8.11,11.5-16.61,11.5-4.72,0-10.56-2.39-13.56-7.11l7.11-5.89Z"/>
    <path class="cls-1" d="m325.99,17.4l-4.17,30.28h-10.06l4.17-30.28h-10.61l1.33-9.11h31.28l-1.33,9.11h-10.61Z"/>
    <path class="cls-1" d="m353.83,23.57h15.95l-1.22,8.83h-15.94l-.83,5.89h17.33l-1.28,9.39h-27.39l5.5-39.33h27.39l-1.33,9.39h-17.33l-.83,5.83Z"/>
  </g>
</svg>